<?xml version="1.0" encoding="UTF-8" standalone="no"?>
<!-- Created with Inkscape (http://www.inkscape.org/) -->

<svg
   xmlns:dc="http://purl.org/dc/elements/1.1/"
   xmlns:cc="http://creativecommons.org/ns#"
   xmlns:rdf="http://www.w3.org/1999/02/22-rdf-syntax-ns#"
   xmlns:svg="http://www.w3.org/2000/svg"
   xmlns="http://www.w3.org/2000/svg"
   xmlns:sodipodi="http://sodipodi.sourceforge.net/DTD/sodipodi-0.dtd"
   xmlns:inkscape="http://www.inkscape.org/namespaces/inkscape"
   width="85.134193mm"
   height="85.338867mm"
   viewBox="0 0 85.134193 85.338867"
   version="1.1"
   id="svg5327"
   inkscape:version="0.92.1 r15371"
   sodipodi:docname="cerezasBlack.svg">
  <defs
     id="defs5321" />
  <sodipodi:namedview
     id="base"
     pagecolor="#ffffff"
     bordercolor="#666666"
     borderopacity="1.0"
     inkscape:pageopacity="0.0"
     inkscape:pageshadow="2"
     inkscape:zoom="0.35"
     inkscape:cx="-294.83077"
     inkscape:cy="106.98459"
     inkscape:document-units="mm"
     inkscape:current-layer="layer1"
     showgrid="false"
     fit-margin-top="0"
     fit-margin-left="0"
     fit-margin-right="0"
     fit-margin-bottom="0"
     inkscape:window-width="1366"
     inkscape:window-height="705"
     inkscape:window-x="-8"
     inkscape:window-y="-8"
     inkscape:window-maximized="1" />
  <metadata
     id="metadata5324">
    <rdf:RDF>
      <cc:Work
         rdf:about="">
        <dc:format>image/svg+xml</dc:format>
        <dc:type
           rdf:resource="http://purl.org/dc/dcmitype/StillImage" />
        <dc:title></dc:title>
      </cc:Work>
    </rdf:RDF>
  </metadata>
  <g
     inkscape:label="Capa 1"
     inkscape:groupmode="layer"
     id="layer1"
     transform="translate(-44.367428,-91.800805)">
    <rect
       style="fill:#313131;fill-opacity:1;stroke:none;stroke-width:0.06707892;stroke-linejoin:round;stroke-miterlimit:4;stroke-dasharray:none;stroke-opacity:1"
       id="rect4149-6"
       width="85.134193"
       height="85.338867"
       x="44.367428"
       y="91.800804"
       ry="0.29547003" />
    <g
       id="g4469"
       transform="matrix(0.44602314,0,0,0.45304,-94.859492,-320.89964)">
      <ellipse
         ry="84.700653"
         rx="91.201958"
         cy="1006.0564"
         cx="408.05276"
         id="path4166-0"
         style="fill:#f9f9f9;fill-opacity:1;stroke:none;stroke-width:0.5;stroke-linejoin:round;stroke-miterlimit:4;stroke-dasharray:none;stroke-opacity:1" />
      <path
         inkscape:connector-curvature="0"
         id="path4350"
         d="m 388.18476,1062.712 c -4.62079,-0.4377 -9.10385,-1.6887 -13.94173,-3.8902 -7.59564,-3.4566 -12.44216,-8.4523 -14.83297,-15.2898 -0.686,-1.9619 -0.77239,-2.7738 -0.75433,-7.09 0.0186,-4.4412 0.10073,-5.1087 0.92424,-7.5099 1.66176,-4.8454 3.95777,-8.2825 7.47759,-11.194 2.89688,-2.3962 5.13919,-3.2823 8.60642,-3.4011 l 2.81056,-0.096 4.01913,1.7855 c 2.21053,0.982 4.77571,2.0423 5.7004,2.3562 l 1.68127,0.5708 0.33172,-1.0783 c 0.18245,-0.5931 0.93406,-3.4047 1.67025,-6.2481 6.19244,-23.91718 12.90324,-43.16278 17.35232,-49.7639 0.60759,-0.90148 1.00397,-1.63695 0.88084,-1.63438 -0.12313,0.002 -2.15819,1.33005 -4.52236,2.94997 -7.88432,5.40228 -10.94088,6.96378 -15.88229,8.1137 -6.76174,1.57353 -14.91895,1.23671 -21.7784,-0.89925 -6.35917,-1.98018 -13.73938,-6.82675 -20.16395,-13.24163 -2.63917,-2.6352 -2.93116,-2.00973 2.4402,-5.22703 1.90953,-1.14374 5.40619,-2.92672 7.77036,-3.96216 17.59302,-7.70527 33.51827,-7.56206 45.35663,0.40784 2.91925,1.96532 4.17505,3.11591 7.53711,6.90562 1.71584,1.9341 2.4887,2.58492 3.06968,2.58492 1.40699,0 2.63863,0.84229 4.41679,3.02055 2.28348,2.79729 4.80272,7.12509 6.92941,11.90405 3.45778,7.77009 8.71769,22.70242 13.23969,37.5861 2.42925,7.9957 1.92316,7.5489 6.57784,5.8065 5.42161,-2.0296 6.06405,-2.2191 8.06646,-2.3803 2.30793,-0.1857 5.70481,0.4232 8.31597,1.4906 5.72758,2.3415 9.08827,8.9344 9.10425,17.8606 0.0245,13.677 -7.87789,23.8113 -21.02286,26.9604 -3.80732,0.9121 -11.20803,0.9184 -15.94382,0.014 -7.47374,-1.4278 -13.95686,-4.6467 -17.59337,-8.735 l -0.96552,-1.0855 -1.07054,1.4154 c -4.82771,6.3831 -11.46359,10.1341 -19.47185,11.0067 -1.54104,0.1679 -3.02898,0.2876 -3.30654,0.266 -0.27755,-0.022 -1.64043,-0.1469 -3.0286,-0.2784 z m 36.12442,-30.0366 c 0.0215,-0.4468 0.0254,-0.9019 0.009,-1.0112 -0.0169,-0.1093 0.44812,-0.076 1.03328,0.074 1.3673,0.3504 1.8622,0.3406 1.23363,-0.024 -0.39479,-0.2292 -0.32733,-0.291 0.33065,-0.3027 0.45465,-0.01 1.23697,-0.023 1.73848,-0.034 1.25794,-0.027 3.4036,-2.2465 4.04948,-4.1897 0.54599,-1.6426 0.61652,-4.1564 0.14235,-5.0731 -0.21635,-0.4182 -0.28954,0.013 -0.25057,1.4771 0.0303,1.1374 0.0286,2.4668 -0.004,2.9542 l -0.0589,0.8863 -0.49394,-0.8462 c -0.57732,-0.989 -0.63706,-1.8464 -0.14749,-2.1167 0.19055,-0.1053 0.31416,-0.9047 0.27468,-1.7765 -0.0395,-0.8719 -0.19538,-1.5169 -0.34646,-1.4335 -0.15105,0.083 -0.27466,-0.032 -0.27466,-0.2574 0,-0.4597 -1.64014,-1.9502 -1.67662,-1.5237 -0.0128,0.1502 -0.004,1.2905 0.0202,2.534 0.0406,2.1071 -0.30516,3.0274 -0.9281,2.4707 -0.30919,-0.2764 -0.28799,-3.0845 0.022,-2.9134 0.13639,0.075 0.24799,-0.07 0.24799,-0.3237 0,-0.2533 -0.16826,-0.4605 -0.37392,-0.4605 -0.24267,0 -0.30799,-0.363 -0.18611,-1.034 0.10329,-0.5687 0.0856,-1.049 -0.0394,-1.0674 -1.44624,-0.2124 -2.37645,-0.125 -2.37645,0.2233 0,0.2205 -0.24141,0.401 -0.53646,0.401 -0.44316,0 -0.46371,-0.078 -0.11821,-0.4503 0.63063,-0.6789 0.34372,-0.7235 -1.92889,-0.2998 -2.25676,0.4208 -2.95539,0.7391 -1.68738,0.7688 l 0.79908,0.019 -0.82072,0.2925 c -0.55939,0.1994 -0.8577,0.1935 -0.93685,-0.019 -0.22362,-0.5993 -0.72233,-0.3043 -0.72233,0.4273 0,0.4062 -0.0622,0.7386 -0.13828,0.7386 -0.0761,0 -0.39805,0.089 -0.71555,0.1979 -0.4201,0.144 -0.50496,0.093 -0.31167,-0.1861 0.1791,-0.2589 0.11601,-0.3368 -0.19375,-0.2392 -0.25264,0.08 -0.43157,0.4625 -0.39763,0.8508 0.0339,0.3883 -0.0157,0.5398 -0.11022,0.3367 -0.34259,-0.7359 -0.64223,-0.3455 -0.51023,0.6647 0.0839,0.6421 -0.006,1.0339 -0.23802,1.0339 -0.23817,0 -0.2962,-0.2938 -0.16045,-0.8124 0.19715,-0.753 0.17205,-0.778 -0.34363,-0.3415 -0.52029,0.4404 -0.50924,0.5422 0.17059,1.5717 0.39981,0.6054 1.07509,1.8558 1.50063,2.7787 0.42555,0.9229 0.95067,1.6372 1.16693,1.5874 0.27401,-0.063 0.2932,0.026 0.0633,0.2954 -0.365,0.427 -0.18725,3.2685 0.19138,3.0595 0.13069,-0.072 0.17506,0.2495 0.0986,0.7149 -0.15228,0.9271 0.17762,1.0699 2.6559,1.1504 1.13447,0.037 1.24328,-0.029 1.27911,-0.7722 z m -3.34063,-0.2954 c -0.003,-0.3656 0.14374,-0.6647 0.32559,-0.6647 0.41428,0 0.41428,0.3135 0,0.8862 -0.25919,0.3584 -0.32149,0.316 -0.32559,-0.2215 z m 0.19384,-1.207 c -0.0939,-0.1358 -0.0397,-0.6343 0.12056,-1.1078 0.28139,-0.8316 0.28937,-0.8232 0.23392,0.2462 -0.0612,1.1806 -0.0883,1.2464 -0.35448,0.8616 z m -0.81066,-0.6891 c -0.0272,-0.4335 -0.13518,-1.0317 -0.23984,-1.3294 -0.17987,-0.5115 -0.16966,-0.5124 0.18648,-0.017 0.20721,0.2885 0.31514,0.8867 0.23983,1.3294 l -0.13694,0.8049 -0.0495,-0.7883 z m 9.32747,-0.3842 c 0.0256,-0.3839 0.10892,-0.6425 0.18509,-0.5746 0.0762,0.068 0.41097,-0.097 0.74397,-0.366 0.86572,-0.7 0.74795,-0.1914 -0.18509,0.7992 -0.78014,0.8284 -0.78994,0.8303 -0.74397,0.1414 z m -9.00133,-1.8556 c 0.0389,-0.7031 0.0644,-0.7224 0.18896,-0.1433 0.083,0.386 0.29546,0.5854 0.50204,0.4713 0.21344,-0.1178 0.26279,-0.06 0.12218,0.1433 -0.42329,0.6119 -0.85922,0.3593 -0.81318,-0.4713 z m 2.35849,0.017 c 0.32172,-0.075 0.7681,-0.07 0.99197,0.011 0.22386,0.081 -0.0393,0.1422 -0.58494,0.1362 -0.54558,-0.01 -0.72874,-0.072 -0.40703,-0.1471 z m -1.73716,-0.5871 c -0.003,-0.1918 -0.33985,-0.4064 -0.74903,-0.4768 -0.40918,-0.07 -0.0744,-0.1356 0.74397,-0.1449 0.81837,-0.01 1.26475,0.059 0.99196,0.1517 -0.27279,0.093 -0.6053,0.315 -0.7389,0.4937 -0.17179,0.2298 -0.24441,0.2229 -0.248,-0.024 z m 1.97886,-0.094 c 0,-0.1625 0.2232,-0.2954 0.49598,-0.2954 0.27279,0 0.49598,0.1329 0.49598,0.2954 0,0.1624 -0.22319,0.2954 -0.49598,0.2954 -0.27278,0 -0.49598,-0.133 -0.49598,-0.2954 z m 0.49598,-0.8863 c 0.1124,-0.1625 0.26998,-0.2954 0.35017,-0.2954 0.0802,0 0.14581,0.1329 0.14581,0.2954 0,0.1625 -0.15757,0.2954 -0.35016,0.2954 -0.1926,0 -0.25822,-0.1329 -0.14582,-0.2954 z m 2.06659,-0.6182 c 0.40918,-0.1369 0.74397,-0.334 0.74397,-0.4378 0,-0.1039 -0.2604,-0.1003 -0.57865,0.01 -0.45329,0.1541 -0.49214,0.1189 -0.17934,-0.1627 0.30569,-0.2752 0.50858,-0.2785 0.86543,-0.014 0.36429,0.2701 0.566,0.2359 0.92331,-0.1565 0.40155,-0.441 0.38678,-0.4785 -0.12146,-0.3083 -0.69649,0.2332 -0.70219,0.1972 -0.12571,-0.7956 l 0.45293,-0.78 0.20436,0.9129 c 0.18422,0.823 0.31064,0.9038 1.283,0.8201 l 1.07864,-0.093 0.16532,-2.5111 c 0.17862,-2.7129 0.52019,-2.8951 0.62965,-0.3358 0.087,2.0336 -0.22664,3.29 -0.82124,3.29 -0.25834,0 -0.46971,0.1994 -0.46971,0.4432 0,0.2437 -0.15758,0.4431 -0.35017,0.4431 -0.19259,0 -0.26866,-0.1178 -0.16904,-0.2618 0.0996,-0.1441 -0.1455,-0.3382 -0.54469,-0.4314 -0.86402,-0.2019 -1.24933,0.033 -0.62201,0.3797 0.26935,0.1488 -0.255,0.2442 -1.33219,0.2425 -1.33398,0 -1.5911,-0.065 -1.0324,-0.2518 z m 5.79382,-3.2222 c 0,-0.7312 0.0645,-1.0303 0.14329,-0.6647 0.0788,0.3655 0.0788,0.9638 0,1.3293 -0.0788,0.3656 -0.14329,0.067 -0.14329,-0.6646 z m -4.06627,-2.585 c -0.0409,-0.2031 -0.0929,-0.4911 -0.11562,-0.64 -0.0228,-0.149 -0.17678,-0.3816 -0.34234,-0.517 -0.17487,-0.1431 -0.20133,-0.091 -0.0631,0.1231 0.13081,0.2031 0.0803,0.3692 -0.11232,0.3692 -0.4422,0 -0.45712,-0.4969 -0.0221,-0.7371 0.63968,-0.3532 1.21761,0.2628 0.96868,1.0326 -0.13136,0.4062 -0.27227,0.5723 -0.31312,0.3692 z m 0.23583,12.0041 c 1.76543,-0.9749 1.0854,-0.9502 -1.25015,0.045 -1.68121,0.7166 -1.88745,0.8695 -0.99915,0.7407 0.61565,-0.089 1.62783,-0.443 2.2493,-0.7861 z m -2.12871,-0.1614 c -0.22733,-0.082 -0.59931,-0.082 -0.82664,0 -0.22732,0.082 -0.0414,0.149 0.41332,0.149 0.45465,0 0.64064,-0.067 0.41332,-0.149 z m -50.67262,-0.3822 c -1.14956,-0.2032 -1.15142,-0.2061 -0.27879,-0.4293 0.50291,-0.1287 1.15892,-0.091 1.5344,0.089 1.48549,0.7103 6.34088,-1.8826 6.35447,-3.3934 0.004,-0.4238 0.0746,-0.4648 0.28638,-0.1662 0.20306,0.2863 0.48457,0.021 1.01201,-0.952 0.40188,-0.7417 0.63622,-1.4851 0.52074,-1.6521 -0.11547,-0.1669 -0.0524,-0.3035 0.14022,-0.3035 0.19259,0 0.35017,-0.3282 0.35017,-0.7293 0,-0.5256 -0.13798,-0.6819 -0.49409,-0.5599 -0.27174,0.093 -0.42256,0.2728 -0.33515,0.3992 0.0874,0.1263 -0.14744,0.5777 -0.52189,1.003 -0.58492,0.6644 -0.9335,0.7733 -2.47539,0.7733 -1.01662,0 -1.79459,0.1325 -1.79459,0.3058 0,0.2108 -0.1987,0.2108 -0.63957,0 -0.35176,-0.1682 -0.90974,-0.2965 -1.23995,-0.2851 -0.54208,0.019 -0.53616,0.048 0.0609,0.3015 0.57636,0.2447 0.55511,0.2615 -0.16532,0.131 -0.45465,-0.082 -1.09581,-0.1516 -1.42479,-0.1538 -0.32899,0 -0.5062,-0.137 -0.3938,-0.2994 0.12673,-0.1832 -0.48337,-0.2955 -1.6062,-0.2955 -1.06438,0 -1.86249,0.1392 -1.93657,0.3378 -0.0693,0.1857 -0.81767,0.3609 -1.66304,0.3892 -0.84538,0.028 -1.4715,-0.043 -1.39139,-0.1591 0.0801,-0.1158 -0.0767,-0.2868 -0.34842,-0.3799 -0.57435,-0.1969 -0.68776,0.5565 -0.13012,0.8644 0.20317,0.1122 0.28241,0.5653 0.17936,1.0256 -0.21568,0.9635 0.39466,1.5648 1.31602,1.2966 0.47425,-0.1381 0.51175,-0.1115 0.15906,0.1128 -0.25383,0.1614 -0.37009,0.5063 -0.25837,0.7664 0.11172,0.2601 0.0542,0.4729 -0.1278,0.4729 -0.18201,0 -0.4451,-0.2757 -0.58464,-0.6127 -0.13954,-0.337 -0.39513,-0.6361 -0.56799,-0.6647 -0.17285,-0.029 -0.2734,-0.1615 -0.22342,-0.2955 0.05,-0.1339 -0.0612,-0.1595 -0.24699,-0.057 -0.22899,0.1265 -0.23163,-0.063 -0.008,-0.5881 0.18131,-0.426 0.31917,-0.9322 0.30636,-1.1247 -0.0128,-0.1925 -0.23676,0.1705 -0.49764,0.8067 -0.43017,1.0491 -0.42031,1.2103 0.10596,1.7306 1.59943,1.5814 4.25571,2.5565 6.86272,2.5191 l 1.32261,-0.019 -1.15729,-0.2046 z m -2.7279,-0.504 c 0.22733,-0.082 0.59931,-0.082 0.82664,0 0.22733,0.082 0.0413,0.149 -0.41332,0.149 -0.45464,0 -0.64064,-0.067 -0.41332,-0.149 z m -1.89168,-0.3837 c -0.26752,-0.1511 -0.37557,-0.3738 -0.24011,-0.4949 0.13546,-0.121 0.49782,0 0.80525,0.2794 0.59761,0.5339 0.23986,0.6704 -0.56514,0.2155 z m 0.35012,-0.8755 c -0.39763,-0.2249 -0.39066,-0.3322 0.0469,-0.7232 0.46473,-0.4152 0.50939,-0.3895 0.46695,0.2684 -0.0258,0.4001 -0.0469,0.7256 -0.0469,0.7232 0,0 -0.21012,-0.1231 -0.46694,-0.2684 z m 9.39458,-0.3484 c 0.83813,-0.5219 0.87664,-0.5946 0.24832,-0.4689 -0.409,0.082 -0.81235,0.049 -0.89632,-0.072 -0.084,-0.1214 0.43388,-0.2117 1.15079,-0.2005 l 1.30346,0.02 -0.90312,0.6607 c -0.49672,0.3634 -1.12632,0.6647 -1.39911,0.6695 -0.27496,0.01 -0.0539,-0.2666 0.49598,-0.609 z m 1.82366,-1.7982 c -0.003,-0.2748 0.14373,-0.5817 0.32559,-0.6822 0.41847,-0.231 0.41847,0.16 0,0.7386 -0.27623,0.3819 -0.32123,0.3741 -0.32559,-0.056 z m 1.013,-0.4364 c -0.0143,-0.1898 -0.11174,-0.5887 -0.2164,-0.8863 -0.18088,-0.5144 -0.17155,-0.515 0.18873,-0.013 0.20846,0.2905 0.30584,0.6893 0.2164,0.8863 -0.11738,0.2584 -0.16989,0.2621 -0.18873,0.013 z m -10.10215,-1.2926 c 0.10751,-0.1554 0.65788,-0.2825 1.22303,-0.2825 1.27038,0 1.02498,0.2888 -0.38039,0.4477 -0.60725,0.069 -0.95699,10e-5 -0.84264,-0.1652 z m 10.4067,0.048 c 0,-0.1625 0.14879,-0.3775 0.33065,-0.478 0.18186,-0.1004 0.33065,-0.05 0.33065,0.1129 0,0.1625 -0.14879,0.3776 -0.33065,0.478 -0.18186,0.1004 -0.33065,0.05 -0.33065,-0.1129 z m -15.69258,1.2207 c 0.29338,-0.9516 0.20253,-2.3892 -0.19277,-3.0505 -0.16701,-0.2793 -0.0934,-0.9291 0.18397,-1.6248 l 0.4623,-1.1592 0.0145,1.8638 c 0.008,1.0718 0.1453,1.7916 0.32232,1.6938 0.16929,-0.093 0.39263,-0.047 0.49631,0.1026 0.26109,0.3774 1.45281,0.059 1.5754,-0.4211 0.0818,-0.3202 0.21933,-0.3146 0.74222,0.03 0.57871,0.3816 0.58492,0.4233 0.0632,0.4233 -0.31828,0 -0.48649,0.1333 -0.37378,0.2962 0.12883,0.1862 0.41556,0.1955 0.77229,0.025 0.71833,-0.3435 4.73948,-0.4199 8.06878,-0.1533 2.82216,0.2259 3.55787,-0.026 3.55787,-1.2205 0,-0.8789 -0.38328,-1.0741 -2.15857,-1.0991 -0.79503,-0.011 -1.36977,-0.1299 -1.27722,-0.2637 0.27225,-0.3936 2.53273,-0.2753 3.51845,0.1841 0.53516,0.2494 0.9093,0.2989 0.9093,0.1202 0,-0.1669 -0.45363,-0.4565 -1.00808,-0.6435 -0.77481,-0.2613 -0.96928,-0.4781 -0.84039,-0.9369 0.0922,-0.3283 0.0247,-0.7952 -0.1502,-1.0376 -0.24656,-0.3418 -0.29913,-0.2822 -0.23424,0.2653 0.0501,0.4225 -0.11549,0.7578 -0.41231,0.8349 -0.40063,0.1041 -0.40974,0.075 -0.0474,-0.1521 0.27377,-0.1714 0.32059,-0.3516 0.12013,-0.4623 -0.18067,-0.1 -0.51112,0.015 -0.73435,0.2555 -0.33424,0.3598 -0.26791,0.4863 0.37585,0.7166 0.77806,0.2783 0.77746,0.2797 -0.12758,0.2983 -1.19934,0.025 -1.16553,-0.5403 0.10333,-1.7266 1.01079,-0.9449 1.1746,-1.7887 0.39243,-2.0214 -0.23368,-0.069 -0.34559,0.048 -0.2573,0.2709 0.0859,0.2167 -0.0686,0.6592 -0.34349,0.9834 -0.4287,0.5056 -0.54415,0.5266 -0.81226,0.1477 -0.17189,-0.2429 -0.31481,-0.5956 -0.3176,-0.7837 -0.003,-0.1881 -0.74936,-0.5124 -1.65905,-0.7207 -1.05435,-0.2414 -1.5039,-0.4639 -1.23996,-0.6136 0.58932,-0.3343 1.3181,-0.2994 1.07536,0.052 -0.1124,0.1625 -0.01,0.3044 0.22847,0.3154 0.23806,0.011 0.95361,0.07 1.59012,0.1318 1.01608,0.098 1.06065,0.077 0.36532,-0.174 -0.43559,-0.1572 -0.86249,-0.2229 -0.94867,-0.1459 -0.0862,0.077 -0.39156,-0.07 -0.67863,-0.3263 -0.68908,-0.6157 -4.65929,-0.3443 -5.23503,0.3578 -0.29239,0.3566 -0.41457,0.3747 -0.53033,0.078 -0.11692,-0.2992 -0.29004,-0.2775 -0.77736,0.097 -0.34483,0.2652 -0.94118,0.5674 -1.32523,0.6717 -0.44146,0.1198 -0.69572,0.4315 -0.69132,0.8473 0.007,0.6432 -0.23052,1.3932 -0.72229,2.2826 -0.13475,0.2437 -0.0623,0.7613 0.16091,1.1501 0.4635,0.8073 0.27803,1.5086 -0.39898,1.5086 -0.35349,0 -0.4552,-0.498 -0.43736,-2.1417 0.0168,-1.5489 0.10757,-1.9783 0.32785,-1.551 0.28545,0.5537 0.29957,0.5552 0.22475,0.024 -0.14569,-1.0332 -0.72996,-0.7802 -1.67691,0.7261 -0.99856,1.5884 -1.42524,3.7614 -1.0704,5.4513 0.26095,1.2428 0.68495,1.335 1.02763,0.2235 z m -0.75785,-1.0202 c -0.0181,-0.9114 5.5e-4,-0.9281 0.28998,-0.2591 0.17724,0.4097 0.18547,0.8253 0.0192,0.9738 -0.1662,0.1485 -0.2982,-0.1566 -0.30925,-0.7147 z m 11.6887,-1.6263 -0.9592,-0.134 0.86619,-0.5076 c 1.0899,-0.6388 4.0281,-0.4491 4.0281,0.2601 0,0.4654 -1.96791,0.6562 -3.93509,0.3815 z m 3.03172,-0.5926 c -0.49686,-0.067 -1.38962,-0.069 -1.98392,0 -0.5943,0.066 -0.18778,0.1209 0.90338,0.1225 1.09115,0 1.5774,-0.052 1.08054,-0.1195 z m -7.83138,-6.1013 c 0.0758,-0.06 0.73295,-0.1975 1.46038,-0.3064 0.94767,-0.1417 1.18201,-0.1122 0.82663,0.1041 -0.44608,0.2714 -2.61885,0.4637 -2.28701,0.2023 z m -3.33409,7.7895 c 0,-0.1625 -0.1488,-0.2955 -0.33066,-0.2955 -0.18186,0 -0.33065,0.133 -0.33065,0.2955 0,0.1624 0.14879,0.2954 0.33065,0.2954 0.18186,0 0.33066,-0.133 0.33066,-0.2954 z m 6.44774,-0.2955 c 0.11239,-0.1624 -0.0276,-0.2954 -0.31114,-0.2954 -0.28352,0 -0.5155,0.1329 -0.5155,0.2954 0,0.1625 0.14002,0.2955 0.31115,0.2955 0.17112,0 0.40309,-0.133 0.51549,-0.2955 z m 55.71509,-0.1477 c 0,-0.2437 -0.1488,-0.4431 -0.33066,-0.4431 -0.18186,0 -0.33065,0.1994 -0.33065,0.4431 0,0.2437 0.14879,0.4432 0.33065,0.4432 0.18186,0 0.33066,-0.1995 0.33066,-0.4432 z m -3.19244,-1.4898 c -0.10768,-0.2507 -0.26671,-0.3925 -0.35338,-0.3151 -0.0867,0.077 -0.0595,0.2826 0.0604,0.4559 0.32604,0.4713 0.5166,0.3797 0.29302,-0.1408 z m -45.28157,-2.3796 c 0.11967,-0.2787 -0.12629,-0.8215 -0.60014,-1.3247 -0.92219,-0.9792 -1.3423,-0.5626 -0.657,0.6515 0.24058,0.4262 0.34416,0.8583 0.23018,0.9601 -0.11399,0.1019 0.0248,0.1852 0.30846,0.1852 0.28365,0 0.60696,-0.2125 0.7185,-0.4721 z m -0.73272,-0.4782 c -0.2152,-0.1922 -0.39127,-0.4654 -0.39127,-0.607 0,-0.1416 0.2409,-0.042 0.53534,0.2209 0.29444,0.263 0.47051,0.5362 0.39127,0.607 -0.0792,0.071 -0.32014,-0.029 -0.53534,-0.2209 z m 32.86042,-2.2538 c 1.70634,-1.4916 2.81313,-2.1894 4.21719,-2.6588 2.44305,-0.8166 5.72707,-0.8446 8.24655,-0.07 2.32421,0.7145 7.17935,1.6089 7.44497,1.3716 0.11027,-0.098 -0.0636,-1.6591 -0.38643,-3.4679 -1.51916,-8.5127 -6.33351,-22.39633 -12.57437,-36.26215 -3.94325,-8.76101 -5.35535,-11.31051 -7.3576,-13.2839 -1.57713,-1.55439 -1.2759,-1.67182 -3.7087,1.44576 -5.90838,7.57144 -13.7832,29.42562 -17.38446,48.24529 -1.1488,6.0035 -1.22981,5.5937 1.06397,5.3823 1.04569,-0.096 3.3512,-0.4635 5.12335,-0.8159 4.15009,-0.8252 6.99317,-0.5403 10.39361,1.0412 1.24061,0.577 2.33503,1.0595 2.43203,1.0721 0.097,0.013 1.21746,-0.8871 2.48989,-1.9995 z m -35.23562,0.3976 c 0,-0.2437 -0.0585,-0.4431 -0.12994,-0.4431 -0.0715,0 -0.2156,0.1994 -0.32028,0.4431 -0.10468,0.2437 -0.0462,0.4431 0.12995,0.4431 0.17615,0 0.32027,-0.1994 0.32027,-0.4431 z"
         style="fill:#e35491;fill-opacity:1" />
      <ellipse
         ry="12.94048"
         rx="11.764072"
         cy="1030.0105"
         cx="425.27121"
         id="path4352"
         style="fill:#e35491;fill-opacity:1;stroke:none;stroke-width:2.5;stroke-linejoin:round;stroke-miterlimit:4;stroke-dasharray:none;stroke-opacity:1" />
      <ellipse
         ry="12.94048"
         rx="11.764072"
         cy="1028.834"
         cx="376.45032"
         id="path4352-3"
         style="fill:#e35491;fill-opacity:1;stroke:none;stroke-width:2.5;stroke-linejoin:round;stroke-miterlimit:4;stroke-dasharray:none;stroke-opacity:1" />
      <ellipse
         ry="11.578924"
         rx="11.955001"
         cy="1031.1869"
         cx="359.3924"
         id="path4157-8-4-6-6-4"
         style="fill:#f9f9f9;fill-opacity:1;stroke:#f9f9f9;stroke-width:2.69282246;stroke-linejoin:round;stroke-miterlimit:4;stroke-dasharray:none;stroke-opacity:1" />
      <path
         sodipodi:nodetypes="cc"
         inkscape:connector-curvature="0"
         id="path4384"
         d="m 403.50769,1017.07 c 22.83803,0.4082 19.96361,41.2661 -7.05844,47.6445"
         style="fill:none;fill-rule:evenodd;stroke:#f9f9f9;stroke-width:1px;stroke-linecap:butt;stroke-linejoin:miter;stroke-opacity:1" />
    </g>
  </g>
</svg>
