<?xml version="1.0" encoding="UTF-8" standalone="no"?>
<!-- Created with Inkscape (http://www.inkscape.org/) -->

<svg
   xmlns:dc="http://purl.org/dc/elements/1.1/"
   xmlns:cc="http://creativecommons.org/ns#"
   xmlns:rdf="http://www.w3.org/1999/02/22-rdf-syntax-ns#"
   xmlns:svg="http://www.w3.org/2000/svg"
   xmlns="http://www.w3.org/2000/svg"
   xmlns:sodipodi="http://sodipodi.sourceforge.net/DTD/sodipodi-0.dtd"
   xmlns:inkscape="http://www.inkscape.org/namespaces/inkscape"
   width="85.134193mm"
   height="85.338867mm"
   viewBox="0 0 85.134193 85.338867"
   version="1.1"
   id="svg5327"
   inkscape:version="0.92.1 r15371"
   sodipodi:docname="cerezasMonocromatic.svg">
  <defs
     id="defs5321" />
  <sodipodi:namedview
     id="base"
     pagecolor="#ffffff"
     bordercolor="#666666"
     borderopacity="1.0"
     inkscape:pageopacity="0.0"
     inkscape:pageshadow="2"
     inkscape:zoom="1.2989933"
     inkscape:cx="191.42857"
     inkscape:cy="132.85714"
     inkscape:document-units="mm"
     inkscape:current-layer="layer1"
     showgrid="false"
     fit-margin-top="0"
     fit-margin-left="0"
     fit-margin-right="0"
     fit-margin-bottom="0"
     inkscape:window-width="1366"
     inkscape:window-height="705"
     inkscape:window-x="-8"
     inkscape:window-y="-8"
     inkscape:window-maximized="1" />
  <metadata
     id="metadata5324">
    <rdf:RDF>
      <cc:Work
         rdf:about="">
        <dc:format>image/svg+xml</dc:format>
        <dc:type
           rdf:resource="http://purl.org/dc/dcmitype/StillImage" />
        <dc:title></dc:title>
      </cc:Work>
    </rdf:RDF>
  </metadata>
  <g
     inkscape:label="Capa 1"
     inkscape:groupmode="layer"
     id="layer1"
     transform="translate(-44.367428,-91.800805)">
    <rect
       style="fill:#313131;fill-opacity:1;stroke:none;stroke-width:0.06707892;stroke-linejoin:round;stroke-miterlimit:4;stroke-dasharray:none;stroke-opacity:1"
       id="rect4149-6"
       width="85.134193"
       height="85.338867"
       x="44.367428"
       y="91.800804"
       ry="0.29547003" />
    <path
       style="fill:#f9f9f9;fill-opacity:1;stroke-width:0.44951788"
       d="m 78.279894,160.5514 c -2.06098,-0.19829 -4.060528,-0.76504 -6.218335,-1.76241 -3.387831,-1.56598 -5.549491,-3.82923 -6.615847,-6.92689 -0.305972,-0.88882 -0.344504,-1.25665 -0.336449,-3.21206 0.0083,-2.01204 0.04493,-2.31444 0.412232,-3.40228 0.741184,-2.19516 1.765257,-3.75231 3.335178,-5.07133 1.292076,-1.08558 2.292198,-1.48701 3.838663,-1.54084 l 1.253575,-0.0435 1.792625,0.80891 c 0.985947,0.44488 2.130077,0.92524 2.54251,1.06745 l 0.749885,0.25859 0.147955,-0.48851 c 0.08138,-0.2687 0.416613,-1.54246 0.74497,-2.83064 2.761972,-10.83544 5.755144,-19.55446 7.739537,-22.54504 0.270999,-0.4084 0.447793,-0.7416 0.392875,-0.74044 -0.05492,9.1e-4 -0.962603,0.60257 -2.017078,1.33646 -3.516589,2.44745 -4.879885,3.15487 -7.083868,3.67583 -3.015893,0.71287 -6.654197,0.56028 -9.713671,-0.4074 -2.836337,-0.8971 -6.128081,-3.09279 -8.993588,-5.99898 -1.177131,-1.19386 -1.307365,-0.91049 1.088386,-2.36806 0.851694,-0.51816 2.411285,-1.32592 3.46576,-1.79502 7.846894,-3.49079 14.949924,-3.42591 20.230106,0.18477 1.302053,0.89037 1.862169,1.41163 3.361726,3.12852 0.765304,0.87623 1.110018,1.17108 1.369148,1.17108 0.62755,0 1.17689,0.38159 1.969991,1.36843 1.018485,1.26728 2.142124,3.22795 3.090677,5.39301 1.54225,3.52016 3.888291,10.2851 5.905213,17.028 1.0835,3.62238 0.85777,3.41996 2.93386,2.63058 2.41817,-0.91949 2.70471,-1.00534 3.59783,-1.07837 1.02939,-0.0841 2.54448,0.19173 3.70912,0.6753 2.55463,1.06079 4.05358,4.04764 4.0607,8.09157 0.0109,6.19623 -3.51372,10.78747 -9.37668,12.21414 -1.69815,0.41322 -4.99904,0.41607 -7.111312,0.006 -3.333461,-0.64685 -6.225082,-2.10514 -7.84705,-3.9573 l -0.430644,-0.49178 -0.477486,0.64123 c -2.15327,2.8918 -5.113026,4.59116 -8.684895,4.98648 -0.68734,0.0761 -1.350996,0.13029 -1.474794,0.12051 -0.123793,-0.01 -0.73167,-0.0666 -1.350825,-0.12613 z m 16.112327,-13.60778 c 0.0096,-0.20242 0.01133,-0.40859 0.004,-0.45811 -0.0075,-0.0495 0.199872,-0.0344 0.460867,0.0335 0.609847,0.15875 0.830584,0.15431 0.550227,-0.0109 -0.176085,-0.10384 -0.145996,-0.13183 0.147478,-0.13713 0.202784,-0.005 0.551717,-0.0104 0.775402,-0.0154 0.561071,-0.0122 1.518085,-1.01775 1.806162,-1.8981 0.243524,-0.74416 0.274982,-1.88301 0.06349,-2.29832 -0.0965,-0.18946 -0.129141,0.006 -0.11176,0.66919 0.01351,0.51529 0.01276,1.11756 -0.0018,1.33837 l -0.02627,0.40153 -0.220308,-0.38336 c -0.257498,-0.44806 -0.284144,-0.8365 -0.06578,-0.95895 0.08499,-0.0477 0.140122,-0.40987 0.122513,-0.80483 -0.01762,-0.395 -0.08714,-0.68721 -0.154529,-0.64943 -0.06737,0.0376 -0.122504,-0.0145 -0.122504,-0.11661 0,-0.20827 -0.731541,-0.88352 -0.747812,-0.6903 -0.0057,0.068 -0.0018,0.58465 0.009,1.148 0.01811,0.9546 -0.136108,1.37154 -0.413954,1.11933 -0.137906,-0.12522 -0.12845,-1.3974 0.0098,-1.31989 0.06083,0.034 0.11061,-0.0317 0.11061,-0.14665 0,-0.11475 -0.07505,-0.20862 -0.166777,-0.20862 -0.108237,0 -0.137371,-0.16446 -0.08301,-0.46845 0.04607,-0.25764 0.03818,-0.47523 -0.01757,-0.48357 -0.645056,-0.0962 -1.059952,-0.0566 -1.059952,0.10116 0,0.0999 -0.107674,0.18167 -0.239273,0.18167 -0.19766,0 -0.206826,-0.0353 -0.05272,-0.204 0.281276,-0.30757 0.153307,-0.32778 -0.860329,-0.13582 -1.006567,0.19064 -1.318173,0.33484 -0.752611,0.34829 l 0.356408,0.009 -0.36606,0.13252 c -0.249501,0.0903 -0.382554,0.0877 -0.417856,-0.009 -0.09974,-0.27151 -0.322176,-0.13786 -0.322176,0.19358 0,0.18403 -0.02774,0.33462 -0.06168,0.33462 -0.03394,0 -0.17754,0.0403 -0.319152,0.0896 -0.187375,0.0652 -0.225224,0.0421 -0.139012,-0.0843 0.07988,-0.11729 0.05174,-0.15258 -0.08642,-0.10836 -0.112684,0.0362 -0.192491,0.20953 -0.177352,0.38544 0.01512,0.17592 -0.007,0.24455 -0.04916,0.15254 -0.152803,-0.33339 -0.28645,-0.15652 -0.227575,0.30114 0.03742,0.29089 -0.0027,0.4684 -0.106162,0.4684 -0.106229,0 -0.132112,-0.13311 -0.07156,-0.36805 0.08793,-0.34114 0.07674,-0.35247 -0.153267,-0.15472 -0.232062,0.19952 -0.227133,0.24564 0.07609,0.71205 0.178324,0.27427 0.479515,0.84075 0.669315,1.25886 0.189806,0.41811 0.424021,0.74171 0.520478,0.71915 0.122215,-0.0285 0.130774,0.0118 0.02823,0.13383 -0.162799,0.19345 -0.08352,1.48076 0.08536,1.38608 0.05829,-0.0326 0.07808,0.11303 0.04398,0.32388 -0.06792,0.42001 0.07922,0.4847 1.184593,0.52117 0.506,0.0168 0.554532,-0.0131 0.570513,-0.34983 z m -1.489998,-0.13382 c -0.0013,-0.16564 0.06411,-0.30114 0.14522,-0.30114 0.184779,0 0.184779,0.14203 0,0.40148 -0.115605,0.16237 -0.143392,0.14316 -0.14522,-0.10034 z m 0.08646,-0.54682 c -0.04188,-0.0615 -0.01771,-0.28737 0.05377,-0.50188 0.125507,-0.37675 0.129066,-0.37294 0.104334,0.11154 -0.0273,0.53486 -0.03938,0.56467 -0.158106,0.39034 z m -0.361573,-0.31219 c -0.01213,-0.1964 -0.06029,-0.46741 -0.106975,-0.60228 -0.08023,-0.23173 -0.07567,-0.23213 0.08317,-0.008 0.09242,0.13071 0.140559,0.40171 0.106969,0.60227 l -0.06108,0.36466 -0.02208,-0.35714 z m 4.160267,-0.17406 c 0.01142,-0.17392 0.04858,-0.29108 0.08255,-0.26032 0.03399,0.0308 0.183303,-0.0439 0.331828,-0.16581 0.386131,-0.31713 0.333603,-0.0867 -0.08255,0.36207 -0.347961,0.3753 -0.352332,0.37616 -0.331828,0.0641 z m -4.014801,-0.84066 c 0.01735,-0.31854 0.02872,-0.32728 0.08428,-0.0649 0.03702,0.17487 0.131782,0.26521 0.223921,0.21351 0.0952,-0.0534 0.117211,-0.0272 0.0545,0.0649 -0.188798,0.27722 -0.383232,0.16278 -0.362697,-0.21351 z m 1.051941,0.008 c 0.143494,-0.034 0.34259,-0.0317 0.442441,0.005 0.09985,0.0367 -0.01753,0.0644 -0.260897,0.0617 -0.243341,-0.005 -0.325034,-0.0326 -0.181544,-0.0666 z M 93.0497,144.67779 c -0.0013,-0.0869 -0.151581,-0.18412 -0.334085,-0.21601 -0.182503,-0.0317 -0.03318,-0.0614 0.331828,-0.0657 0.365012,-0.005 0.564108,0.0267 0.442437,0.0687 -0.12167,0.0421 -0.269978,0.14271 -0.329566,0.22367 -0.07662,0.1041 -0.109013,0.10098 -0.110614,-0.0109 z m 0.882617,-0.0426 c 0,-0.0736 0.09955,-0.13382 0.221219,-0.13382 0.121671,0 0.221219,0.0602 0.221219,0.13382 0,0.0736 -0.09955,0.13383 -0.221219,0.13383 -0.121666,0 -0.221219,-0.0602 -0.221219,-0.13383 z m 0.221219,-0.40153 c 0.05013,-0.0736 0.120417,-0.13382 0.156184,-0.13382 0.03577,0 0.06503,0.0602 0.06503,0.13382 0,0.0736 -0.07028,0.13383 -0.15618,0.13383 -0.0859,0 -0.115172,-0.0602 -0.06504,-0.13383 z m 0.921747,-0.28007 c 0.182504,-0.062 0.331828,-0.15131 0.331828,-0.19834 0,-0.0471 -0.116145,-0.0454 -0.258092,0.005 -0.202177,0.0698 -0.219505,0.0539 -0.07999,-0.0737 0.136345,-0.12467 0.226838,-0.12617 0.386001,-0.006 0.162482,0.12237 0.25245,0.10687 0.411818,-0.0709 0.179101,-0.19979 0.172513,-0.21678 -0.05417,-0.13967 -0.310651,0.10565 -0.313193,0.0893 -0.05607,-0.36044 l 0.202017,-0.35337 0.09115,0.41358 c 0.08217,0.37285 0.138553,0.40946 0.572248,0.37154 l 0.481098,-0.0421 0.07374,-1.13762 c 0.07967,-1.22906 0.232017,-1.3116 0.280838,-0.15213 0.0388,0.9213 -0.101086,1.4905 -0.366292,1.4905 -0.115225,0 -0.209501,0.0903 -0.209501,0.20078 0,0.11041 -0.07028,0.20075 -0.156184,0.20075 -0.0859,0 -0.119829,-0.0534 -0.0754,-0.11861 0.04442,-0.0653 -0.0649,-0.15322 -0.242944,-0.19544 -0.385373,-0.0915 -0.55723,0.0149 -0.277431,0.17202 0.120136,0.0674 -0.113736,0.11063 -0.594188,0.10986 -0.594986,0 -0.709667,-0.0295 -0.460474,-0.11408 z m 2.584178,-1.45978 c 0,-0.33126 0.02877,-0.46677 0.06391,-0.30114 0.03515,0.16559 0.03515,0.43664 0,0.60223 -0.03515,0.16563 -0.06391,0.0303 -0.06391,-0.30109 z M 95.84581,141.3227 c -0.01824,-0.092 -0.04144,-0.22249 -0.05157,-0.28994 -0.01017,-0.0675 -0.07885,-0.17289 -0.152692,-0.23423 -0.078,-0.0648 -0.0898,-0.0412 -0.02814,0.0558 0.05835,0.092 0.03582,0.16726 -0.0501,0.16726 -0.197231,0 -0.203886,-0.22511 -0.0099,-0.33393 0.285312,-0.16001 0.543082,0.11906 0.432054,0.46781 -0.05859,0.18402 -0.121439,0.25927 -0.139659,0.16726 z m 0.105186,5.43834 c 0.787422,-0.44167 0.484113,-0.43048 -0.557596,0.0204 -0.749859,0.32465 -0.841846,0.39392 -0.445644,0.33557 0.274594,-0.0403 0.72605,-0.2007 1.00324,-0.35613 z m -0.949454,-0.0731 c -0.101395,-0.0371 -0.267306,-0.0371 -0.368701,0 -0.10139,0.0371 -0.01847,0.0675 0.184351,0.0675 0.202784,0 0.28574,-0.0303 0.18435,-0.0675 z m -22.601161,-0.17315 c -0.512731,-0.0921 -0.51356,-0.0934 -0.124347,-0.19449 0.22431,-0.0583 0.516905,-0.0412 0.684378,0.0403 0.662563,0.32179 2.828179,-0.8529 2.834241,-1.53735 0.0018,-0.192 0.03327,-0.21057 0.127732,-0.0753 0.09057,0.12971 0.216129,0.01 0.45138,-0.43129 0.179247,-0.33602 0.283768,-0.67281 0.232262,-0.74847 -0.0515,-0.0756 -0.02337,-0.13749 0.06254,-0.13749 0.0859,0 0.156184,-0.14869 0.156184,-0.33041 0,-0.23811 -0.06154,-0.30892 -0.220376,-0.25365 -0.121202,0.0421 -0.188471,0.12359 -0.149484,0.18085 0.03898,0.0572 -0.06576,0.26172 -0.232775,0.4544 -0.260888,0.301 -0.416363,0.35034 -1.104081,0.35034 -0.453437,0 -0.800429,0.06 -0.800429,0.13853 0,0.0955 -0.08862,0.0955 -0.285263,0 -0.156893,-0.0762 -0.405765,-0.13432 -0.553047,-0.12916 -0.24178,0.009 -0.239139,0.0217 0.02716,0.13659 0.25707,0.11086 0.247592,0.11847 -0.07374,0.0594 -0.202785,-0.0371 -0.488757,-0.0687 -0.63549,-0.0697 -0.146737,0 -0.225777,-0.0621 -0.175644,-0.13564 0.05653,-0.083 -0.215594,-0.13388 -0.716402,-0.13388 -0.474738,0 -0.830714,0.0631 -0.863755,0.15304 -0.03091,0.0841 -0.3647,0.1635 -0.741754,0.17632 -0.377059,0.0127 -0.656323,-0.0195 -0.620592,-0.0721 0.03573,-0.0525 -0.03421,-0.12993 -0.155404,-0.17211 -0.256173,-0.0892 -0.306757,0.25212 -0.05804,0.39161 0.09062,0.0508 0.125961,0.2561 0.08,0.46464 -0.0962,0.4365 0.176028,0.70892 0.586976,0.58741 0.211526,-0.0626 0.228252,-0.0505 0.07094,0.0511 -0.113214,0.0731 -0.165068,0.22938 -0.115239,0.34721 0.04983,0.11784 0.02417,0.21425 -0.057,0.21425 -0.08118,0 -0.198524,-0.12491 -0.260762,-0.27758 -0.06224,-0.15268 -0.176238,-0.28818 -0.253337,-0.30114 -0.07709,-0.0131 -0.121943,-0.0732 -0.09965,-0.13387 0.0223,-0.0607 -0.0273,-0.0723 -0.110163,-0.0258 -0.102135,0.0573 -0.103312,-0.0285 -0.0036,-0.26644 0.08087,-0.19299 0.142357,-0.42232 0.136644,-0.50953 -0.0057,-0.0872 -0.105601,0.0772 -0.221959,0.36547 -0.191866,0.47528 -0.187468,0.54831 0.04726,0.78403 0.713383,0.71643 1.898145,1.15819 3.060932,1.14125 l 0.589915,-0.009 -0.516178,-0.0927 z m -1.216707,-0.22834 c 0.101395,-0.0371 0.267306,-0.0371 0.368701,0 0.101394,0.0371 0.01842,0.0675 -0.18435,0.0675 -0.20278,0 -0.285741,-0.0304 -0.184351,-0.0675 z m -0.843733,-0.17383 c -0.11932,-0.0684 -0.167513,-0.16934 -0.107094,-0.22421 0.06042,-0.0548 0.222039,0 0.35916,0.12658 0.266548,0.24188 0.106983,0.30372 -0.252066,0.0976 z m 0.156162,-0.39663 c -0.177352,-0.10189 -0.174244,-0.1505 0.02092,-0.32764 0.207281,-0.18811 0.2272,-0.17646 0.208271,0.12159 -0.01151,0.18126 -0.02092,0.32873 -0.02092,0.32764 0,0 -0.09372,-0.0558 -0.208266,-0.12159 z m 4.1902,-0.15784 c 0.373825,-0.23645 0.391002,-0.26938 0.110756,-0.21243 -0.182423,0.0371 -0.362326,0.0222 -0.399779,-0.0326 -0.03747,-0.055 0.19352,-0.0959 0.513279,-0.0908 l 0.581373,0.009 -0.402812,0.29933 c -0.221549,0.16463 -0.502365,0.30113 -0.624036,0.30331 -0.122638,0.005 -0.02404,-0.12078 0.221219,-0.2759 z m 0.813395,-0.81466 c -0.0013,-0.1245 0.06411,-0.26353 0.14522,-0.30906 0.186647,-0.10466 0.186647,0.0725 0,0.33461 -0.123205,0.17302 -0.143276,0.16948 -0.14522,-0.0254 z m 0.451821,-0.19771 c -0.0064,-0.086 -0.04984,-0.2667 -0.09652,-0.40153 -0.08068,-0.23304 -0.07652,-0.23331 0.08418,-0.006 0.09298,0.13161 0.136412,0.31228 0.09652,0.40153 -0.05235,0.11707 -0.07577,0.11875 -0.08418,0.006 z m -4.505793,-0.5856 c 0.04795,-0.0704 0.29343,-0.12798 0.5455,-0.12798 0.566619,0 0.457165,0.13084 -0.169663,0.20283 -0.270847,0.0313 -0.426839,4e-5 -0.375837,-0.0748 z m 4.641629,0.0217 c 0,-0.0736 0.06636,-0.17102 0.147478,-0.21655 0.08111,-0.0455 0.147477,-0.0227 0.147477,0.0511 0,0.0736 -0.06636,0.17107 -0.147477,0.21656 -0.08111,0.0455 -0.147478,0.0226 -0.147478,-0.0512 z m -6.999254,0.55303 c 0.130855,-0.43112 0.09033,-1.08241 -0.08598,-1.382 -0.07449,-0.12654 -0.04166,-0.42092 0.08205,-0.7361 l 0.206197,-0.52517 0.0065,0.84438 c 0.0036,0.48557 0.06481,0.81167 0.143763,0.76736 0.07551,-0.0421 0.175122,-0.0213 0.221365,0.0465 0.116452,0.17098 0.647987,0.0267 0.702665,-0.19077 0.03648,-0.14507 0.09783,-0.14253 0.331047,0.0136 0.258118,0.17288 0.260888,0.19177 0.02819,0.19177 -0.14196,0 -0.216986,0.0604 -0.166714,0.13419 0.05746,0.0844 0.185349,0.0886 0.344459,0.0113 0.320392,-0.15561 2.113917,-0.19023 3.598862,-0.0695 1.258749,0.10235 1.586893,-0.0118 1.586893,-0.55293 0,-0.39818 -0.170952,-0.48661 -0.962772,-0.49794 -0.354602,-0.005 -0.61095,-0.0588 -0.56967,-0.11946 0.12143,-0.17832 1.129656,-0.12473 1.56931,0.0834 0.238694,0.11299 0.405569,0.13541 0.405569,0.0545 0,-0.0756 -0.20233,-0.20682 -0.449627,-0.29154 -0.345583,-0.11837 -0.432322,-0.21659 -0.374834,-0.42445 0.04112,-0.14873 0.01102,-0.36026 -0.06699,-0.47007 -0.109972,-0.15485 -0.133419,-0.12785 -0.104477,0.12019 0.02235,0.19141 -0.05151,0.34331 -0.1839,0.37824 -0.17869,0.0472 -0.182753,0.034 -0.02114,-0.0689 0.122108,-0.0777 0.142991,-0.15928 0.05358,-0.20944 -0.08058,-0.0453 -0.227972,0.007 -0.327537,0.11576 -0.149079,0.163 -0.119494,0.22031 0.167637,0.32464 0.347033,0.12609 0.346766,0.12672 -0.0569,0.13515 -0.534934,0.0113 -0.519854,-0.24478 0.04609,-0.78222 0.450836,-0.42808 0.523899,-0.81036 0.175033,-0.91578 -0.104226,-0.0313 -0.154141,0.0217 -0.114762,0.12273 0.03831,0.0982 -0.0306,0.29864 -0.153204,0.44552 -0.19121,0.22906 -0.242703,0.23857 -0.362287,0.0669 -0.07667,-0.11004 -0.140412,-0.26983 -0.141657,-0.35504 -0.0013,-0.0852 -0.334232,-0.23214 -0.739974,-0.32651 -0.470265,-0.10936 -0.670775,-0.21016 -0.553051,-0.27798 0.26285,-0.15146 0.587903,-0.13564 0.479635,0.0236 -0.05013,0.0736 -0.0045,0.13791 0.101903,0.14289 0.10618,0.005 0.425332,0.0317 0.70923,0.0597 0.453196,0.0444 0.473075,0.0349 0.162942,-0.0788 -0.194284,-0.0712 -0.384691,-0.10098 -0.423129,-0.0661 -0.03845,0.0349 -0.174645,-0.0317 -0.302685,-0.14783 -0.307345,-0.27894 -2.078151,-0.15598 -2.334944,0.1621 -0.130413,0.16155 -0.184908,0.16975 -0.23654,0.0353 -0.05215,-0.13555 -0.129364,-0.12572 -0.34672,0.0439 -0.153803,0.12014 -0.419788,0.25705 -0.591084,0.30431 -0.196901,0.0543 -0.310307,0.19548 -0.308344,0.38386 0.0031,0.29139 -0.102818,0.63117 -0.322158,1.0341 -0.0601,0.11041 -0.02779,0.3449 0.07177,0.52105 0.206732,0.36574 0.124008,0.68345 -0.177954,0.68345 -0.157665,0 -0.20303,-0.22561 -0.195073,-0.97027 0.0075,-0.70172 0.04798,-0.89625 0.146229,-0.70267 0.127317,0.25085 0.133615,0.25153 0.100244,0.0109 -0.06498,-0.46808 -0.325579,-0.35346 -0.747941,0.32896 -0.445381,0.71961 -0.63569,1.70406 -0.477423,2.46965 0.116389,0.56304 0.305503,0.60481 0.458346,0.10126 z m -0.338018,-0.4622 c -0.0081,-0.4129 2.45e-4,-0.42046 0.129338,-0.11738 0.07905,0.18561 0.08272,0.3739 0.0086,0.44117 -0.07413,0.0673 -0.133004,-0.0709 -0.137932,-0.32379 z m 5.213431,-0.73677 -0.427826,-0.0607 0.386341,-0.22997 c 0.486121,-0.2894 1.796626,-0.20346 1.796626,0.11784 0,0.21085 -0.877734,0.29729 -1.755141,0.17284 z m 1.352217,-0.26848 c -0.221611,-0.0303 -0.619803,-0.0313 -0.884874,0 -0.265072,0.0299 -0.08375,0.0548 0.402928,0.0555 0.486678,0 0.703557,-0.0236 0.481946,-0.0541 z m -3.492977,-2.76413 c 0.03381,-0.0272 0.326913,-0.0895 0.651363,-0.13881 0.422683,-0.0642 0.527204,-0.0508 0.368696,0.0472 -0.198962,0.12296 -1.168067,0.21008 -1.020059,0.0916 z m -1.487081,3.52896 c 0,-0.0736 -0.06637,-0.13388 -0.147482,-0.13388 -0.08111,0 -0.147478,0.0603 -0.147478,0.13388 0,0.0736 0.06636,0.13382 0.147478,0.13382 0.08111,0 0.147482,-0.0602 0.147482,-0.13382 z m 2.875841,-0.13388 c 0.05013,-0.0736 -0.01231,-0.13383 -0.138776,-0.13383 -0.126456,0 -0.229925,0.0602 -0.229925,0.13383 0,0.0736 0.06245,0.13388 0.138781,0.13388 0.07632,0 0.179787,-0.0603 0.22992,-0.13388 z m 24.850219,-0.0669 c 0,-0.11041 -0.06637,-0.20074 -0.147482,-0.20074 -0.08111,0 -0.147477,0.0903 -0.147477,0.20074 0,0.1104 0.06636,0.20079 0.147477,0.20079 0.08111,0 0.147482,-0.0904 0.147482,-0.20079 z m -1.423902,-0.67494 c -0.04803,-0.11358 -0.118958,-0.17782 -0.157615,-0.14275 -0.03867,0.0349 -0.02654,0.12803 0.02694,0.20654 0.145422,0.21352 0.230416,0.17202 0.130694,-0.0638 z m -20.196628,-1.07805 c 0.05338,-0.12627 -0.05633,-0.37218 -0.267676,-0.60015 -0.411318,-0.44361 -0.598697,-0.25488 -0.293037,0.29516 0.107304,0.19308 0.153503,0.38884 0.102665,0.43496 -0.05084,0.0462 0.01106,0.0839 0.137581,0.0839 0.126514,0 0.270718,-0.0963 0.320467,-0.21388 z m -0.32681,-0.21665 c -0.09598,-0.0871 -0.174515,-0.21084 -0.174515,-0.27499 0,-0.0642 0.107447,-0.019 0.238774,0.10007 0.131327,0.11915 0.209858,0.24292 0.174515,0.275 -0.03533,0.0322 -0.14279,-0.0131 -0.238774,-0.10008 z m 14.656508,-1.02106 c 0.761067,-0.67575 1.254721,-0.99189 1.880964,-1.20454 1.089657,-0.36996 2.554406,-0.38264 3.678152,-0.0317 1.036652,0.3237 3.202157,0.7289 3.320629,0.62139 0.04918,-0.0444 -0.02837,-0.75163 -0.172356,-1.57109 -0.677581,-3.8566 -2.824892,-10.14644 -5.60846,-16.42821 -1.758781,-3.96909 -2.38861,-5.12411 -3.28166,-6.01814 -0.703437,-0.7042 -0.569081,-0.7574 -1.654166,0.65499 -2.635275,3.43017 -6.147626,13.33098 -7.753872,21.85705 -0.512391,2.71982 -0.548523,2.53417 0.474556,2.43839 0.466401,-0.0435 1.494712,-0.20998 2.285132,-0.36963 1.851036,-0.37385 3.119116,-0.24478 4.635791,0.4717 0.55334,0.26141 1.041477,0.48 1.084741,0.48571 0.04326,0.006 0.543016,-0.40189 1.110549,-0.90585 z m -15.715902,0.18013 c 0,-0.11041 -0.02609,-0.20074 -0.05796,-0.20074 -0.03189,0 -0.09616,0.0903 -0.142852,0.20074 -0.04669,0.1104 -0.02061,0.20074 0.05796,0.20074 0.07857,0 0.142848,-0.0903 0.142848,-0.20074 z"
       id="path4350"
       inkscape:connector-curvature="0" />
    <ellipse
       style="fill:#f9f9f9;fill-opacity:1;stroke:none;stroke-width:1.12379467;stroke-linejoin:round;stroke-miterlimit:4;stroke-dasharray:none;stroke-opacity:1"
       id="path4352"
       cx="94.821312"
       cy="145.73631"
       rx="5.2470484"
       ry="5.862555" />
    <ellipse
       style="fill:#f9f9f9;fill-opacity:1;stroke:none;stroke-width:1.12379467;stroke-linejoin:round;stroke-miterlimit:4;stroke-dasharray:none;stroke-opacity:1"
       id="path4352-3"
       cx="73.046059"
       cy="145.20331"
       rx="5.2470484"
       ry="5.862555" />
    <ellipse
       style="fill:#313131;fill-opacity:1;stroke:#313131;stroke-width:1.21047187;stroke-linejoin:round;stroke-miterlimit:4;stroke-dasharray:none;stroke-opacity:1"
       id="path4157-8-4-6-6-4"
       cx="65.437836"
       cy="146.26927"
       rx="5.3322072"
       ry="5.2457156" />
    <path
       style="fill:none;fill-rule:evenodd;stroke:#313131;stroke-width:0.44951788px;stroke-linecap:butt;stroke-linejoin:miter;stroke-opacity:1"
       d="m 85.114275,139.87375 c 10.18629,0.18493 8.904232,18.6952 -3.148228,21.58487"
       id="path4384"
       inkscape:connector-curvature="0"
       sodipodi:nodetypes="cc" />
  </g>
</svg>
