<?xml version="1.0" encoding="UTF-8" standalone="no"?>
<!-- Created with Inkscape (http://www.inkscape.org/) -->

<svg
   xmlns:dc="http://purl.org/dc/elements/1.1/"
   xmlns:cc="http://creativecommons.org/ns#"
   xmlns:rdf="http://www.w3.org/1999/02/22-rdf-syntax-ns#"
   xmlns:svg="http://www.w3.org/2000/svg"
   xmlns="http://www.w3.org/2000/svg"
   xmlns:sodipodi="http://sodipodi.sourceforge.net/DTD/sodipodi-0.dtd"
   xmlns:inkscape="http://www.inkscape.org/namespaces/inkscape"
   width="205.11823mm"
   height="85.089432mm"
   viewBox="0 0 205.11823 85.089432"
   version="1.1"
   id="svg4590"
   inkscape:version="0.92.1 r15371"
   sodipodi:docname="LeftLoversBlue.svg">
  <defs
     id="defs4584" />
  <sodipodi:namedview
     id="base"
     pagecolor="#ffffff"
     bordercolor="#666666"
     borderopacity="1.0"
     inkscape:pageopacity="0.0"
     inkscape:pageshadow="2"
     inkscape:zoom="0.35"
     inkscape:cx="-142.37502"
     inkscape:cy="-224.91535"
     inkscape:document-units="mm"
     inkscape:current-layer="layer1"
     showgrid="false"
     fit-margin-top="0"
     fit-margin-left="0"
     fit-margin-right="0"
     fit-margin-bottom="0"
     inkscape:window-width="1366"
     inkscape:window-height="705"
     inkscape:window-x="-8"
     inkscape:window-y="-8"
     inkscape:window-maximized="1" />
  <metadata
     id="metadata4587">
    <rdf:RDF>
      <cc:Work
         rdf:about="">
        <dc:format>image/svg+xml</dc:format>
        <dc:type
           rdf:resource="http://purl.org/dc/dcmitype/StillImage" />
        <dc:title></dc:title>
      </cc:Work>
    </rdf:RDF>
  </metadata>
  <g
     inkscape:label="Capa 1"
     inkscape:groupmode="layer"
     id="layer1"
     transform="translate(-4.0301774,-4.2350451)">
    <rect
       ry="0.29460645"
       y="4.235045"
       x="4.0301776"
       height="85.089432"
       width="205.11823"
       id="rect4149-3"
       style="fill:#48b2ab;fill-opacity:1;stroke:none;stroke-width:0.10396821;stroke-linejoin:round;stroke-miterlimit:4;stroke-dasharray:none;stroke-opacity:1" />
    <path
       inkscape:connector-curvature="0"
       id="path4194-2"
       d="m 105.79859,83.552616 c -2.3434,-0.808019 -5.876444,-2.237161 -7.851195,-3.175869 L 94.356924,78.67 90.398247,80.497454 c -9.483666,4.377944 -19.026718,1.689365 -15.209128,-4.284893 1.960544,-3.068123 5.196583,-4.124785 12.601727,-4.114809 l 6.394597,0.0086 2.245572,-4.035577 c 2.423798,-4.355886 4.769495,-9.967135 6.556885,-15.685059 l 1.12393,-3.595512 -4.773037,-0.0032 c -8.245676,-0.0058 -12.907143,-1.688237 -12.907143,-4.659246 0,-0.856632 0.298583,-0.875637 2.905043,-0.18489 3.563919,0.944496 7.441323,1.011109 12.447417,0.213834 l 3.80856,-0.606555 1.33057,-4.714804 c 2.4104,-8.541058 7.19377,-14.559763 13.17484,-16.577299 4.43383,-1.495617 7.8278,-1.384904 10.13807,0.330722 2.75329,2.044615 2.69609,7.241506 -0.12523,11.37605 -2.54214,3.725416 -9.57416,9.250068 -14.26779,11.209382 l -3.57497,1.492335 -2.1124,6.383198 c -2.31056,6.982051 -6.59294,15.451757 -9.60783,19.002415 l -1.922505,2.264139 1.836165,1.104138 c 6.91081,4.155655 14.15743,5.035223 20.94189,2.541854 l 3.94653,-1.450399 -0.43178,2.390538 c -0.31941,1.768393 -1.14689,2.877199 -3.17957,4.26054 -2.43888,1.659774 -3.24986,1.86938 -7.21357,1.864388 -3.1476,-0.0041 -5.72343,-0.439259 -8.7265,-1.474736 z M 86.895578,78.35169 c 3.400722,-1.198381 3.351654,-1.947938 -0.127519,-1.947938 -3.294705,0 -5.759154,0.870272 -5.759154,2.033728 0,1.110996 2.597906,1.073138 5.886673,-0.08579 z M 120.28931,36.547036 c 3.91739,-3.075928 5.96776,-6.258007 5.51287,-8.555713 -0.73474,-3.711271 -6.65654,0.250198 -9.07844,6.073148 -2.73915,6.585676 -2.16718,6.983908 3.56557,2.482565 z"
       style="fill:#f9f9f9;fill-opacity:1;stroke:none;stroke-width:0.90311116;stroke-miterlimit:4;stroke-dasharray:none;stroke-opacity:1" />
    <path
       inkscape:connector-curvature="0"
       id="path4207-0-1"
       d="m 53.367857,67.814011 c -1.060352,-1.43061 -1.843527,-4.509973 -2.077342,-8.167895 -0.206412,-3.229348 -0.49129,-5.871543 -0.633061,-5.871543 -0.141775,0 -1.931623,0.618267 -3.977446,1.373923 -4.22971,1.562311 -9.462011,1.14977 -12.090759,-0.953279 -1.576894,-1.261551 -1.979614,-1.230055 -4.98543,0.389923 -9.54652,5.145081 -15.059546,-2.146071 -12.669949,-16.756414 1.556464,-9.516483 4.371622,-16.088078 8.070511,-18.839494 3.608595,-2.68426 5.153119,-2.74384 7.109822,-0.274263 3.396256,4.286445 0.45882,15.263955 -6.750273,25.226473 -3.549854,4.905686 -3.782554,6.850335 -0.935279,7.816213 3.217841,1.091582 6.002223,-1.075902 6.705129,-5.219585 1.235919,-7.285758 8.370319,-11.823488 13.718678,-8.72556 5.058416,2.929974 2.00399,9.777752 -5.060467,11.345167 -4.885402,1.083948 -0.639262,3.472036 4.425075,2.488726 3.960252,-0.768932 6.917654,-3.525077 6.917654,-6.446899 0,-4.365475 2.878175,-14.775849 5.528473,-19.996545 5.281214,-10.403169 12.950611,-11.261779 12.950611,-1.449846 0,5.378484 -2.556685,10.224205 -8.843817,16.761779 l -4.896734,5.091786 0.305339,9.603195 c 0.167937,5.281758 0.657381,9.913361 1.087654,10.292442 1.731854,1.525809 2.696326,-2.015713 2.023113,-7.428849 -0.382259,-3.073713 -0.732198,-6.942712 -0.777635,-8.597778 l -0.08263,-3.009229 5.592352,-0.257852 c 5.478405,-0.252595 5.592355,-0.309533 5.592355,-2.794282 0,-1.991657 -0.432311,-2.536422 -2.012809,-2.536422 -2.805193,0 -2.211087,-3.765502 0.651115,-4.126842 1.571098,-0.198343 2.405318,-1.388647 3.615422,-5.158676 1.990003,-6.199733 4.811599,-10.23813 8.070416,-11.550726 2.24954,-0.90608 2.762368,-0.792178 4.378858,0.97256 1.006995,1.09936 1.830911,2.935648 1.830911,4.080646 0,2.554766 -2.440147,7.872981 -4.564456,9.94806 -1.479017,1.444746 -1.38605,1.536082 1.563613,1.536082 2.695981,0 3.092515,0.271503 2.825341,1.934498 -0.270756,1.685306 -0.96855,1.967986 -5.416852,2.194382 l -5.106064,0.259873 v 4.578573 c 0,6.33835 1.779538,7.497073 8.023815,5.224574 1.284591,-0.467501 1.702018,-0.200953 1.702018,1.086843 0,5.387595 -11.098697,5.570048 -13.6038,0.22365 -1.036083,-2.211214 -1.494381,-2.385 -5.675786,-2.152334 -2.501781,0.139206 -4.489687,0.485818 -4.417571,0.770241 1.077513,4.249497 1.270045,12.231681 0.354203,14.684864 -1.845773,4.944065 -5.766556,6.069595 -8.464321,2.42984 z M 41.192488,45.557927 c 2.504141,-1.550538 2.823452,-3.649687 0.66647,-4.381399 -1.883311,-0.638869 -5.312983,2.029423 -5.312983,4.133517 0,1.938218 1.764572,2.03235 4.646513,0.247882 z M 24.575635,39.373286 c 3.012099,-4.84606 5.329953,-11.826994 4.983768,-15.01017 -0.475158,-4.369088 -2.789242,-3.482199 -4.841666,1.855603 -1.89026,4.916066 -3.824509,16.378739 -2.763794,16.378739 0.339725,0 1.51949,-1.450877 2.621692,-3.224172 z m 38.861654,-6.663281 c 2.273402,-4.310693 3.114853,-11.607007 1.338577,-11.607007 -1.911951,0 -6.833063,12.08488 -6.833063,16.780112 0,2.477039 2.899709,-0.25306 5.494486,-5.173105 z m 15.895766,0.438054 c 3.603592,-4.473798 3.590451,-11.993508 -0.01422,-8.15388 -1.535924,1.636028 -3.972726,10.725052 -2.875424,10.725052 0.450249,0 1.750597,-1.157027 2.889671,-2.571172 z"
       style="fill:#f9f9f9;fill-opacity:1;stroke-width:0.28222224" />
    <path
       inkscape:connector-curvature="0"
       id="path4572"
       d="m 193.54455,79.169081 c -1.54424,-0.189642 -2.97958,-0.895096 -3.68612,-1.811694 -0.47955,-0.622119 -0.56896,-0.941917 -0.56896,-2.035009 0,-1.19076 0.0572,-1.355315 0.69925,-2.010765 0.961,-0.981095 2.07889,-1.256883 4.33944,-1.070557 l 1.81325,0.14946 -0.11678,-0.861512 c -0.0642,-0.473834 -0.37112,-1.358934 -0.68198,-1.966891 -0.59987,-1.173176 -2.49903,-3.623469 -2.80845,-3.623469 -0.10128,0 -0.48296,0.516792 -0.84818,1.148428 -1.76456,3.05175 -5.67564,7.465325 -7.12325,8.038465 -1.42094,0.562573 -2.3583,0.06914 -2.79195,-1.469687 -0.19715,-0.69958 0.32553,-1.66999 1.94904,-3.618619 0.82218,-0.986835 1.49488,-1.850771 1.49488,-1.919859 0,-0.06909 -0.18188,-0.0293 -0.40418,0.08842 -0.57054,0.302136 -1.7831,0.265596 -2.6162,-0.07884 -1.18262,-0.488941 -1.45845,-1.141177 -1.57674,-3.728325 -0.0976,-2.134627 -0.13375,-2.289288 -0.54882,-2.347877 -0.64753,-0.09141 -1.79133,1.330387 -3.01715,3.750462 -0.90794,1.792495 -1.38878,3.138495 -2.60263,7.285437 -0.43277,1.478486 -1.11362,2.053071 -2.43275,2.053071 -0.91897,0 -1.11961,-0.08251 -1.66243,-0.683647 -0.33952,-0.376001 -0.67306,-0.959468 -0.7412,-1.296588 -0.0681,-0.337117 -0.19902,-0.65889 -0.29086,-0.715049 -0.0918,-0.05616 -0.59013,0.180492 -1.10735,0.525887 -2.92768,1.95512 -6.32003,2.655573 -9.56502,1.974986 -1.89467,-0.397378 -3.24385,-1.119474 -4.42378,-2.367673 -1.09593,-1.159335 -1.64972,-2.258046 -2.01451,-3.996772 l -0.24037,-1.145709 -1.29634,0.09703 c -0.7186,0.05378 -1.91633,-0.03187 -2.68747,-0.192191 l -1.39112,-0.289227 -1.66237,2.493733 c -2.61681,3.925468 -3.92925,5.176788 -5.86301,5.589967 -2.40436,0.513726 -4.19115,-1.412759 -4.52357,-4.877221 -0.0697,-0.726276 -0.1761,-1.719261 -0.23648,-2.206633 l -0.10978,-0.88613 -1.60552,0.123204 c -2.49677,0.191595 -2.38467,0.127009 -2.93353,1.690215 -0.94549,2.692837 -2.51487,4.461016 -4.9554,5.583123 -1.04775,0.481734 -1.51352,0.569454 -3.01532,0.567885 -1.50599,-0.0017 -1.97432,-0.09146 -3.07889,-0.590908 -2.91098,-1.316268 -4.64745,-4.375819 -4.64592,-8.185831 0.002,-5.310279 3.12849,-9.64291 7.61101,-10.547613 4.17045,-0.841725 7.69059,1.654257 8.7166,6.180566 l 0.25212,1.112249 1.37119,-0.115161 c 2.2282,-0.187133 2.10254,-0.0033 2.10254,-3.075497 0,-3.422475 0.2492,-3.941967 2.02169,-4.214523 1.14373,-0.175876 2.23971,0.192077 2.54465,0.854309 0.13186,0.286365 0.23915,1.376945 0.23841,2.423518 -0.002,2.604643 0.44042,10.289448 0.62003,10.774311 0.11632,0.313998 0.47149,-0.114362 1.74825,-2.108525 2.08028,-3.249137 2.13054,-3.363792 1.83838,-4.193094 -0.34372,-0.975631 -0.28702,-3.275798 0.10911,-4.426147 0.47162,-1.369616 1.98249,-2.888943 3.18916,-3.207022 3.14815,-0.829851 4.58881,1.968794 3.14744,6.114235 l -0.38947,1.12014 h 1.00742 c 2.09079,0 2.21485,-0.07842 3.15078,-1.991741 1.42977,-2.922888 3.69855,-4.737628 6.57993,-5.263106 4.1611,-0.758862 7.10614,1.772378 6.73787,5.791147 -0.30737,3.354123 -2.95219,5.863807 -7.55371,7.16779 -0.75759,0.214689 -1.37744,0.470475 -1.37744,0.56842 0,0.36729 1.2447,1.309681 2.04202,1.546056 2.45481,0.727758 5.64204,-0.231323 8.51794,-2.563151 l 0.87321,-0.708022 0.14104,-2.026217 c 0.15975,-2.295124 0.93166,-6.251804 1.51947,-7.788538 0.25911,-0.677409 0.62902,-1.185737 1.08329,-1.48866 0.81461,-0.543196 2.38423,-0.821021 3.14761,-0.557135 0.7518,0.25989 0.78298,1.017191 0.14455,3.510735 -0.28796,1.1247 -0.66906,2.871238 -0.8469,3.881196 -0.5252,2.98275 -0.43374,3.08041 0.62613,0.66861 2.39309,-5.445614 6.77214,-9.064532 9.56918,-7.90813 1.33614,0.552411 1.64636,1.967973 1.0595,4.834631 -0.12001,0.586218 -0.0821,0.671985 0.29664,0.671985 0.88741,0 1.55931,0.501969 2.03674,1.521632 l 0.4743,1.012978 0.77337,-1.519592 c 0.42536,-0.835773 1.32949,-2.731948 2.00918,-4.213716 1.78582,-3.893208 2.75799,-4.616862 5.90605,-4.396297 2.22641,0.155993 2.36398,0.543594 1.15876,3.26484 -0.81081,1.830736 -1.04515,2.945339 -0.80226,3.815785 0.1082,0.387762 1.13663,1.941483 2.2854,3.452727 2.87778,3.785797 3.22537,4.528312 3.22205,6.883025 -0.002,1.654643 -0.0756,2.013963 -0.66126,3.242008 -0.36225,0.759609 -1.04261,1.793299 -1.5119,2.297077 -1.02131,1.096355 -2.93125,2.149856 -4.21028,2.322353 -0.51015,0.0688 -1.11561,0.151198 -1.34547,0.183103 -0.22985,0.03191 -0.94796,-0.0071 -1.5958,-0.08663 z m -69.98759,-8.777546 c 0.87872,-0.449625 1.6366,-1.44686 1.98706,-2.614577 l 0.31116,-1.036797 -0.71555,-0.621665 c -1.09495,-0.951278 -1.82351,-2.615367 -1.94149,-4.434524 -0.0978,-1.508297 -0.10935,-1.534772 -0.66804,-1.534772 -1.20233,0 -2.68204,1.483707 -3.17583,3.184412 -0.39454,1.358866 -0.33777,4.20267 0.10665,5.342393 0.69741,1.788536 2.48786,2.53842 4.09604,1.71553 z m 35.88556,-5.285678 c 2.16443,-1.046942 3.29377,-2.807874 2.76443,-4.310419 -0.27435,-0.778739 -0.73391,-1.05977 -1.73299,-1.05977 -1.49838,0 -3.04365,2.044948 -3.45894,4.577402 -0.11864,0.723482 -0.21642,1.396839 -0.21729,1.496342 -0.003,0.299006 1.27442,-0.0407 2.64479,-0.703555 z"
       style="fill:#f9f9f9;fill-opacity:1;stroke-width:0.20786016" />
  </g>
</svg>
