<?xml version="1.0" encoding="UTF-8" standalone="no"?>
<!-- Created with Inkscape (http://www.inkscape.org/) -->

<svg
   xmlns:dc="http://purl.org/dc/elements/1.1/"
   xmlns:cc="http://creativecommons.org/ns#"
   xmlns:rdf="http://www.w3.org/1999/02/22-rdf-syntax-ns#"
   xmlns:svg="http://www.w3.org/2000/svg"
   xmlns="http://www.w3.org/2000/svg"
   xmlns:sodipodi="http://sodipodi.sourceforge.net/DTD/sodipodi-0.dtd"
   xmlns:inkscape="http://www.inkscape.org/namespaces/inkscape"
   width="205.11823mm"
   height="85.089432mm"
   viewBox="0 0 205.11823 85.089432"
   version="1.1"
   id="svg4590"
   inkscape:version="0.92.1 r15371"
   sodipodi:docname="LeftLoversBlack.svg">
  <defs
     id="defs4584" />
  <sodipodi:namedview
     id="base"
     pagecolor="#ffffff"
     bordercolor="#666666"
     borderopacity="1.0"
     inkscape:pageopacity="0.0"
     inkscape:pageshadow="2"
     inkscape:zoom="0.35"
     inkscape:cx="-142.37502"
     inkscape:cy="-224.91535"
     inkscape:document-units="mm"
     inkscape:current-layer="layer1"
     showgrid="false"
     fit-margin-top="0"
     fit-margin-left="0"
     fit-margin-right="0"
     fit-margin-bottom="0"
     inkscape:window-width="1366"
     inkscape:window-height="705"
     inkscape:window-x="-8"
     inkscape:window-y="-8"
     inkscape:window-maximized="1" />
  <metadata
     id="metadata4587">
    <rdf:RDF>
      <cc:Work
         rdf:about="">
        <dc:format>image/svg+xml</dc:format>
        <dc:type
           rdf:resource="http://purl.org/dc/dcmitype/StillImage" />
        <dc:title></dc:title>
      </cc:Work>
    </rdf:RDF>
  </metadata>
  <g
     inkscape:label="Capa 1"
     inkscape:groupmode="layer"
     id="layer1"
     transform="translate(-4.0301774,-4.2350451)">
    <g
       transform="matrix(0.28222223,0,0,0.28222223,-9.395373,-146.79121)"
       id="g5154">
      <rect
         style="fill:#313131;fill-opacity:1;stroke:none;stroke-width:0.36839128;stroke-linejoin:round;stroke-miterlimit:4;stroke-dasharray:none;stroke-opacity:1"
         id="rect4149-3"
         width="726.79681"
         height="301.49799"
         x="47.570847"
         y="535.13239"
         ry="1.0438811" />
      <path
         style="fill:#f9f9f9;fill-opacity:1;stroke:none;stroke-width:3.20000005;stroke-miterlimit:4;stroke-dasharray:none;stroke-opacity:1"
         d="m 408.16757,816.17889 c -8.30338,-2.86306 -20.82204,-7.92695 -27.81919,-11.25308 l -12.72214,-6.04753 -14.02681,6.47523 c -33.60354,15.5124 -67.4175,5.98594 -53.89061,-15.18269 6.94681,-10.8713 18.41309,-14.61538 44.65179,-14.58003 l 22.65802,0.0306 7.95675,-14.29929 c 8.58826,-15.43424 16.89977,-35.31662 23.23305,-55.57698 l 3.98244,-12.74 -16.91234,-0.0115 c -29.21696,-0.0204 -45.73397,-5.98194 -45.73397,-16.50914 0,-3.03531 1.05797,-3.10265 10.29346,-0.65512 12.62806,3.34664 26.36689,3.58267 44.10502,0.75768 l 13.49488,-2.14921 4.71465,-16.706 c 8.54077,-30.26359 25.48972,-51.58971 46.68248,-58.73846 15.71044,-5.29943 27.7363,-4.90714 35.92231,1.17185 9.75575,7.2447 9.55306,25.65888 -0.44372,40.30884 -9.00759,13.20029 -33.92419,32.77583 -50.55518,39.71828 l -12.66723,5.2878 -7.48486,22.61763 c -8.18702,24.73955 -23.36083,54.75032 -34.0435,67.33139 l -6.81202,8.02254 6.50608,3.9123 c 24.48712,14.72476 50.16415,17.84134 74.20355,9.00657 l 13.98376,-5.13921 -1.52991,8.47041 c -1.13177,6.26596 -4.06377,10.1948 -11.26619,15.0964 -8.64171,5.88109 -11.51525,6.62379 -25.55988,6.6061 -11.15293,-0.0144 -20.27987,-1.55643 -30.92069,-5.22544 z M 341.1884,797.75041 c 12.0498,-4.24623 11.87594,-6.90214 -0.45184,-6.90214 -11.67415,0 -20.40645,3.08364 -20.40645,7.20612 0,3.9366 9.20518,3.80246 20.85829,-0.30398 z M 459.51264,649.62369 c 13.88051,-10.89896 21.1456,-22.17404 19.53381,-30.31552 -2.60343,-13.15017 -23.58617,0.88653 -32.16772,21.51903 -9.70563,23.33507 -7.67898,24.74613 12.63391,8.79649 z"
         id="path4194-2"
         inkscape:connector-curvature="0" />
      <path
         style="fill:#f9f9f9;fill-opacity:1"
         d="m 222.38939,760.41218 c -3.75715,-5.06909 -6.53218,-15.98022 -7.36066,-28.94136 -0.73138,-11.44257 -1.74079,-20.80468 -2.24313,-20.80468 -0.50235,0 -6.84433,2.19071 -14.09331,4.86823 -14.98716,5.53575 -33.52681,4.07399 -42.84127,-3.37776 -5.58742,-4.47006 -7.01438,-4.35846 -17.66491,1.38162 -33.82625,18.2306 -53.360594,-7.60419 -44.89352,-59.37312 5.515032,-33.71982 15.49,-57.005 28.5963,-66.75411 12.78636,-9.51116 18.25908,-9.72227 25.19228,-0.9718 12.03398,15.18819 1.62574,54.08488 -23.91829,89.38514 -12.57822,17.38235 -13.40275,24.27284 -3.31398,27.69524 11.4018,3.86781 21.26772,-3.81225 23.75833,-18.49459 4.37924,-25.81568 29.65861,-41.89425 48.60949,-30.91734 17.92352,10.3818 7.10075,34.64558 -17.93079,40.19941 -17.31048,3.84076 -2.2651,12.30249 15.6794,8.81832 14.03239,-2.72456 24.51137,-12.49043 24.51137,-22.84334 0,-15.46822 10.19826,-52.35537 19.58908,-70.8539 18.71296,-36.86162 45.88799,-39.90394 45.88799,-5.13725 0,19.05762 -9.05912,36.2275 -31.33636,59.39213 l -17.35063,18.04176 1.08191,34.02707 c 0.59505,18.71489 2.3293,35.12608 3.85389,36.46928 6.13649,5.40641 9.55391,-7.14229 7.16851,-26.32269 -1.35446,-10.89111 -2.5944,-24.60016 -2.7554,-30.46457 l -0.29277,-10.66262 19.81542,-0.91365 c 19.41167,-0.89502 19.81543,-1.09677 19.81543,-9.901 0,-7.05705 -1.53181,-8.98732 -7.132,-8.98732 -9.93966,0 -7.83456,-13.34233 2.3071,-14.62267 5.56688,-0.70279 8.52278,-4.9204 12.81055,-18.27877 7.05119,-21.96756 17.04897,-36.27684 28.59596,-40.92777 7.97081,-3.21052 9.78792,-2.80693 15.51564,3.44608 3.56809,3.89537 6.48748,10.4019 6.48748,14.45898 0,9.05232 -8.64619,27.89639 -16.17327,35.24903 -5.24061,5.11918 -4.9112,5.44281 5.54036,5.44281 9.55269,0 10.95773,0.96202 10.01105,6.85452 -0.95937,5.97156 -3.43187,6.97318 -19.19357,7.77537 l -18.09235,0.92081 v 16.22329 c 0,22.45872 6.30545,26.56443 28.43084,18.51227 4.5517,-1.6565 6.03077,-0.71204 6.03077,3.85102 0,19.0899 -39.32609,19.73639 -48.20244,0.79246 -3.67116,-7.83501 -5.29505,-8.45079 -20.11105,-7.62638 -8.86458,0.49325 -15.90834,1.7214 -15.65281,2.7292 3.81796,15.05727 4.50016,43.3406 1.25505,52.03298 -6.54014,17.51834 -20.43268,21.50644 -29.99169,8.60967 z m -43.14107,-78.86014 c 8.87294,-5.49403 10.00436,-12.93196 2.36151,-15.52464 -6.67315,-2.26371 -18.82553,7.19087 -18.82553,14.64632 0,6.8677 6.25242,7.20124 16.46402,0.87832 z m -58.87861,-21.91408 c 10.67279,-17.17108 18.88566,-41.90667 17.65902,-53.18564 -1.68363,-15.48102 -9.88314,-12.3385 -17.15551,6.57497 -6.69777,17.41913 -13.55141,58.0349 -9.79297,58.0349 1.20375,0 5.38402,-5.1409 9.28946,-11.42423 z m 137.69877,-23.61005 c 8.05536,-15.27411 11.03688,-41.12719 4.74299,-41.12719 -6.77463,0 -24.21164,42.82044 -24.21164,59.45709 0,8.77691 10.27456,-0.89667 19.46865,-18.3299 z m 56.32358,1.55216 c 12.76863,-15.85204 12.72207,-42.49668 -0.0504,-28.8917 -5.44225,5.79695 -14.07659,38.00215 -10.18851,38.00215 1.59537,0 6.2029,-4.0997 10.23899,-9.11045 z"
         id="path4207-0-1"
         inkscape:connector-curvature="0" />
      <path
         style="fill:#f9f9f9;fill-opacity:1;stroke-width:0.73651236"
         d="m 719.07845,800.64668 c -5.47171,-0.67196 -10.55757,-3.1716 -13.06107,-6.41939 -1.69919,-2.20436 -2.016,-3.3375 -2.016,-7.21066 0,-4.21923 0.20276,-4.8023 2.47767,-7.12476 3.40513,-3.47632 7.36616,-4.45352 15.37597,-3.79331 l 6.4249,0.52958 -0.41378,-3.0526 c -0.22759,-1.67894 -1.315,-4.81512 -2.41648,-6.9693 -2.12553,-4.15692 -8.85482,-12.83906 -9.9512,-12.83906 -0.35885,0 -1.71126,1.83115 -3.00534,4.06923 -6.2524,10.81329 -20.11054,26.45194 -25.23988,28.48275 -5.03481,1.99337 -8.35616,0.245 -9.89273,-5.20755 -0.69857,-2.47883 1.15345,-5.91729 6.90605,-12.82188 2.91324,-3.49666 5.29682,-6.55785 5.29682,-6.80265 0,-0.24481 -0.64447,-0.1038 -1.43215,0.31331 -2.0216,1.07056 -6.31805,0.94109 -9.26998,-0.27935 -4.19039,-1.73247 -5.16776,-4.04354 -5.58689,-13.2106 -0.34582,-7.56364 -0.47392,-8.11165 -1.94462,-8.31925 -2.2944,-0.32389 -6.34724,4.71397 -10.69071,13.28904 -3.2171,6.35136 -4.92087,11.12065 -9.22191,25.81454 -1.53343,5.23873 -3.94588,7.27466 -8.61997,7.27466 -3.25619,0 -3.96713,-0.29236 -5.89049,-2.42237 -1.20304,-1.33229 -2.38489,-3.39969 -2.62633,-4.59421 -0.24143,-1.19451 -0.70519,-2.33465 -1.03059,-2.53364 -0.32537,-0.19898 -2.09103,0.63954 -3.92367,1.86338 -10.37368,6.92759 -22.39382,9.40951 -33.89183,6.99798 -6.7134,-1.40803 -11.49393,-3.96664 -15.6748,-8.38939 -3.88321,-4.10788 -5.84545,-8.00095 -7.13802,-14.16179 l -0.85171,-4.0596 -4.59334,0.34381 c -2.54621,0.19057 -6.79013,-0.11292 -9.52252,-0.68099 l -4.92917,-1.02482 -5.8903,8.83606 c -9.27214,13.90914 -13.92252,18.34295 -20.77442,19.80697 -8.51938,1.82029 -14.85054,-5.00584 -16.0284,-17.28149 -0.24692,-2.57342 -0.62399,-6.09187 -0.83793,-7.81878 l -0.38899,-3.13983 -5.68885,0.43655 c -8.84681,0.67888 -8.44962,0.45003 -10.3944,5.98895 -3.35016,9.54155 -8.91096,15.80675 -17.55849,19.78272 -3.7125,1.70693 -5.36286,2.01775 -10.68421,2.01219 -5.33619,-0.006 -6.99562,-0.32406 -10.90944,-2.09377 -10.31452,-4.66394 -16.46736,-15.50487 -16.46194,-29.00491 0.008,-18.81595 11.08522,-34.16779 26.96815,-37.37343 14.77719,-2.98249 27.25013,5.86154 30.88559,21.89964 l 0.89334,3.94104 4.85854,-0.40805 c 7.8952,-0.66307 7.44996,-0.0118 7.44996,-10.89743 0,-12.12688 0.88298,-13.9676 7.16348,-14.93335 4.05258,-0.62318 7.93597,0.68059 9.01646,3.02708 0.46721,1.01468 0.84737,4.87894 0.84477,8.58727 -0.006,9.22905 1.56053,36.45867 2.19696,38.17669 0.41215,1.11259 1.67063,-0.40522 6.19459,-7.47115 7.37104,-11.51269 7.54915,-11.91895 6.51392,-14.85742 -1.2179,-3.45696 -1.01698,-11.60716 0.38661,-15.6832 1.67112,-4.85297 7.02459,-10.23641 11.30019,-11.36346 11.15487,-2.94042 16.25957,6.97604 11.15234,21.66461 l -1.38003,3.969 h 3.56962 c 7.40832,0 7.84788,-0.27788 11.16416,-7.05735 5.06613,-10.35669 13.10512,-16.78687 23.31471,-18.6488 14.74408,-2.68888 25.17927,6.28008 23.87435,20.51981 -1.0891,11.88469 -10.46049,20.77727 -26.7651,25.39768 -2.68438,0.76071 -4.88069,1.66704 -4.88069,2.01409 0,1.30142 4.41036,4.6406 7.23548,5.47815 8.69816,2.57867 19.99151,-0.81965 30.18168,-9.08203 l 3.09408,-2.50874 0.49973,-7.17951 c 0.56604,-8.13233 3.30116,-22.15206 5.38394,-27.59718 0.9181,-2.40027 2.22881,-4.20143 3.83845,-5.27478 2.88639,-1.92471 8.44805,-2.90913 11.15293,-1.9741 2.66387,0.92087 2.77435,3.60422 0.5122,12.43961 -1.02033,3.98516 -2.37069,10.17368 -3.00082,13.75227 -1.86096,10.5688 -1.5369,10.91484 2.21855,2.36909 8.47946,-19.29548 23.99579,-32.11842 33.90655,-28.02093 4.73436,1.95736 5.83355,6.97313 3.75414,17.13058 -0.42523,2.07715 -0.29108,2.38105 1.05108,2.38105 3.14438,0 5.5251,1.77863 7.2168,5.39161 l 1.68057,3.58929 2.74031,-5.38438 c 1.50716,-2.9614 4.71078,-9.68013 7.11912,-14.93049 6.32773,-13.79483 9.77243,-16.35896 20.92696,-15.57743 7.88886,0.55273 8.3763,1.92612 4.10586,11.56833 -2.87295,6.48686 -3.70332,10.43624 -2.84267,13.5205 0.38339,1.37396 4.02744,6.87927 8.09789,12.23407 10.19686,13.41424 11.42845,16.0452 11.41668,24.38867 -0.008,5.86291 -0.26793,7.13609 -2.34303,11.48743 -1.28355,2.69153 -3.69427,6.35421 -5.35713,8.13925 -3.61881,3.88472 -10.38631,7.6176 -14.91832,8.22881 -1.80761,0.24377 -3.95295,0.53574 -4.76739,0.64879 -0.81446,0.11307 -3.35894,-0.025 -5.65442,-0.30697 z M 471.09094,769.54514 c 3.11355,-1.59316 5.79897,-5.12667 7.04075,-9.26425 l 1.10254,-3.67369 -2.53542,-2.20275 c -3.87973,-3.37067 -6.46124,-9.26705 -6.87929,-15.71288 -0.34662,-5.34436 -0.38745,-5.43817 -2.36707,-5.43817 -4.26021,0 -9.50329,5.25723 -11.25294,11.28335 -1.39799,4.81488 -1.19684,14.89135 0.37788,18.92974 2.47115,6.33733 8.81528,8.9944 14.51355,6.07865 z m 127.15354,-18.72878 c 7.66923,-3.70964 11.67086,-9.94916 9.79522,-15.27314 -0.97211,-2.75931 -2.60045,-3.75509 -6.14049,-3.75509 -5.30922,0 -10.78461,7.24588 -12.2561,16.21914 -0.42038,2.56352 -0.76684,4.94943 -0.76993,5.302 -0.009,1.05947 4.51567,-0.14422 9.3713,-2.49291 z"
         id="path4572"
         inkscape:connector-curvature="0" />
    </g>
  </g>
</svg>
